<?xml version="1.0" standalone="no"?>
<!DOCTYPE svg PUBLIC "-//W3C//DTD SVG 20010904//EN"
 "http://www.w3.org/TR/2001/REC-SVG-20010904/DTD/svg10.dtd">
<svg version="1.0" xmlns="http://www.w3.org/2000/svg"
 width="600.000000pt" height="600.000000pt" viewBox="0 0 600.000000 600.000000"
 preserveAspectRatio="xMidYMid meet">
<metadata>
Created by potrace 1.11, written by Peter Selinger 2001-2013
</metadata>
<g transform="translate(0.000000,600.000000) scale(0.100000,-0.100000)"
fill="#000000" stroke="none">
<path d="M2897 5514 c-1 -1 -42 -4 -92 -8 -95 -6 -196 -19 -280 -36 -27 -6
-59 -12 -70 -14 -62 -12 -195 -50 -284 -81 -765 -266 -1346 -866 -1585 -1635
-19 -63 -38 -130 -41 -149 -3 -19 -8 -38 -10 -41 -3 -4 -7 -25 -10 -46 -4 -22
-8 -46 -10 -54 -2 -8 -7 -37 -11 -65 -3 -27 -8 -58 -10 -68 -23 -124 -23 -489
1 -639 2 -13 9 -57 15 -98 77 -492 344 -1003 714 -1363 379 -369 831 -600
1355 -694 133 -24 169 -27 416 -27 235 0 287 3 400 22 268 46 463 107 690 216
699 336 1189 939 1374 1691 18 74 40 197 46 255 2 14 6 59 11 100 14 139 9
398 -11 540 -8 59 -15 104 -20 130 -2 14 -7 36 -9 50 -10 56 -38 166 -62 243
-127 405 -356 775 -653 1060 -430 410 -966 653 -1551 703 -62 6 -309 12 -313
8z m243 -368 c649 -34 1255 -375 1642 -926 158 -224 303 -569 343 -815 27
-161 34 -242 35 -395 0 -146 -5 -219 -26 -350 -110 -694 -563 -1293 -1214
-1603 -86 -41 -131 -59 -255 -102 -118 -41 -301 -79 -450 -93 -96 -9 -356 -9
-435 1 -36 5 -72 9 -80 9 -8 0 -60 9 -115 20 -564 109 -1080 453 -1391 928
-199 305 -318 646 -349 1000 -7 82 -8 320 -1 360 3 14 7 52 11 85 15 151 103
492 137 530 4 5 8 15 8 22 0 13 73 165 120 248 161 289 442 580 736 763 94 58
236 131 309 157 28 10 55 22 60 25 39 27 326 101 450 116 28 4 53 8 57 11 4 2
67 7 140 10 73 3 135 7 136 9 2 1 9 1 15 -1 7 -2 59 -6 117 -9z"/>
<path d="M1300 3802 c-7 -3 -10 -272 -10 -780 l0 -777 775 0 c426 0 776 2 776
5 7 28 2 1543 -5 1548 -10 5 -1518 10 -1536 4z"/>
<path d="M3199 3802 c-13 -2 -15 -101 -15 -780 l1 -777 775 0 775 0 3 778 c2
735 1 777 -15 778 -52 2 -1512 4 -1524 1z"/>
<path d="M2962 2181 c-17 -32 -38 -63 -45 -68 -7 -6 -337 -9 -830 -9 -764 1
-819 0 -834 -16 -17 -20 -12 -86 8 -98 14 -9 3495 -7 3504 1 15 15 16 75 2 94
-15 20 -28 20 -844 21 -455 1 -831 2 -835 3 -3 0 -23 30 -43 66 -20 36 -39 65
-43 65 -4 0 -22 -26 -40 -59z"/>
</g>
</svg>
